<svg id="Layer_1" data-name="Layer 1" xmlns="http://www.w3.org/2000/svg" viewBox="0 0 1600 1084"><defs><style>.cls-1{fill:#b30043;}.cls-2{fill:#fff;}</style></defs><rect class="cls-1" width="1600" height="1084"/><path class="cls-2" d="M451.48,599.09h31l23.75,145.82H483.35L479.18,716v.41h-26L449,744.91H427.73Zm25,97.49L466.26,624.5h-.41l-10,72.08Z"/><path class="cls-2" d="M517.31,599.09h22.91v59.37h24.59V599.09h22.91V744.91H564.81V679.29H540.22v65.62H517.31Z"/><path class="cls-2" d="M604.8,599.09h22.91v125h37.71v20.83H604.8Z"/><path class="cls-2" d="M676.47,599.09h22.91V744.91H676.47Z"/><path class="cls-2" d="M754.38,737.52q-8.55-9.48-8.54-27.19V702h21.67v10q0,14.16,11.87,14.16,5.83,0,8.85-3.43t3-11.15a31,31,0,0,0-4.16-16.15q-4.17-7-15.42-16.76-14.16-12.51-19.79-22.61a46.07,46.07,0,0,1-5.62-22.81q0-17.28,8.74-26.77T780.42,597q16.46,0,24.9,9.48t8.43,27.18v6.05H792.09V632.2q0-7.49-2.92-10.93t-8.54-3.43q-11.46,0-11.46,13.95a27.49,27.49,0,0,0,4.27,14.79q4.27,6.88,15.52,16.67,14.37,12.5,19.8,22.71t5.41,23.95q0,17.94-8.85,27.49T779.59,747Q762.91,747,754.38,737.52Z"/><path class="cls-2" d="M834.59,737.4q-9-9.55-9-27.07V633.66q0-17.49,9-27.07T860.42,597q16.86,0,25.83,9.59t9,27.07v76.67q0,17.5-9,27.07T860.42,747Q843.55,747,834.59,737.4Zm37.7-25.61V632.2q0-14.36-11.87-14.36T848.54,632.2v79.59q0,14.37,11.88,14.37T872.29,711.79Z"/><path class="cls-2" d="M915.2,737.52q-8.54-9.48-8.53-27.19V702h21.66v10q0,14.16,11.87,14.16,5.84,0,8.86-3.43t3-11.15a30.91,30.91,0,0,0-4.17-16.15q-4.17-7-15.41-16.76-14.18-12.51-19.8-22.61a46.07,46.07,0,0,1-5.62-22.81q0-17.28,8.75-26.77T941.24,597q16.46,0,24.9,9.48t8.43,27.18v6.05H952.92V632.2q0-7.49-2.93-10.93c-1.94-2.29-4.79-3.43-8.53-3.43q-11.46,0-11.47,13.95a27.5,27.5,0,0,0,4.28,14.79q4.28,6.88,15.52,16.67,14.37,12.5,19.79,22.71T975,709.91q0,17.94-8.86,27.49T940.41,747Q923.74,747,915.2,737.52Z"/><path class="cls-2" d="M988.12,599.09H1011V744.91H988.12Z"/><path class="cls-2" d="M1045.82,599.09h31l23.75,145.82H1077.7L1073.53,716v.41h-26l-4.17,28.54h-21.25Zm25,97.49-10.21-72.08h-.42l-10,72.08Z"/><path class="cls-2" d="M1111.66,599.09h22.91v125h37.7v20.83h-60.61Z"/><path class="cls-2" d="M802.31,270.87c-66.58,28.61-106.3,45.94-107.71,47a27.16,27.16,0,0,0-8,10.74,22.1,22.1,0,0,0,13.56,28.09c2.39.82,19,3.82,50.7,9l47.22,7.79,18.27,44.23c12.08,29.26,18.92,45.25,20.21,47.29a22.2,22.2,0,0,0,30.48,6.9,26.12,26.12,0,0,0,8.75-10.54c1.25-3.19,41.69-227.79,41.43-230-.4-3.48-4.42-6.5-7.93-6C908.44,225.43,860.27,245.92,802.31,270.87Z"/></svg>