<svg id="Layer_1" data-name="Layer 1" xmlns="http://www.w3.org/2000/svg" viewBox="0 0 500 500"><defs><style>.cls-1{fill:#b30043;}.cls-2{fill:#fff;}</style></defs><rect class="cls-1" width="500" height="500"/><path class="cls-2" d="M250.65,198.65C207.57,217.16,181.87,228.37,181,229a17.5,17.5,0,0,0-5.19,6.95,14.3,14.3,0,0,0,8.78,18.18c1.54.53,12.31,2.47,32.8,5.83l30.56,5,11.82,28.62c7.82,18.94,12.24,29.28,13.07,30.61a14.38,14.38,0,0,0,19.73,4.46,16.89,16.89,0,0,0,5.66-6.82c.81-2.07,27-147.4,26.81-148.86a4.84,4.84,0,0,0-5.13-3.88C319.32,169.24,288.15,182.5,250.65,198.65Z"/></svg>