<svg id="Layer_1" data-name="Layer 1" xmlns="http://www.w3.org/2000/svg" viewBox="0 0 117.23 19.3"><defs><style>.cls-1{fill:#b30043;}</style></defs><path class="cls-1" d="M9,18.87C3.89,21.08.82,22.42.71,22.5a2,2,0,0,0-.62.83,1.71,1.71,0,0,0,1,2.17c.18.06,1.47.29,3.91.69l3.65.6,1.41,3.42c.93,2.26,1.46,3.49,1.56,3.65a1.71,1.71,0,0,0,2.35.53,1.9,1.9,0,0,0,.68-.81c.1-.25,3.22-17.59,3.2-17.76a.58.58,0,0,0-.61-.47C17.22,15.36,13.5,17,9,18.87Z" transform="translate(0 -15.35)"/><path d="M24.47,15.62h4l3.05,18.76H28.57L28,30.66v.05H24.69l-.54,3.67H21.42Zm3.22,12.54-1.32-9.27h-.05L25,28.16Z" transform="translate(0 -15.35)"/><path d="M32.94,15.62h3v7.64h3.17V15.62H42V34.38H39.06V25.94H35.89v8.44h-3Z" transform="translate(0 -15.35)"/><path d="M44.2,15.62h2.95V31.7H52v2.68H44.2Z" transform="translate(0 -15.35)"/><path d="M53.43,15.62h2.94V34.38H53.43Z" transform="translate(0 -15.35)"/><path d="M63.45,33.43a5.06,5.06,0,0,1-1.1-3.5V28.86h2.79v1.29c0,1.21.51,1.82,1.53,1.82a1.45,1.45,0,0,0,1.14-.44,2.16,2.16,0,0,0,.39-1.44A3.92,3.92,0,0,0,67.66,28a10,10,0,0,0-2-2.16A11.65,11.65,0,0,1,63.13,23,6,6,0,0,1,62.41,20a4.88,4.88,0,0,1,1.12-3.44,4.24,4.24,0,0,1,3.27-1.22A4.09,4.09,0,0,1,70,16.57a5.11,5.11,0,0,1,1.08,3.5v.77H68.31v-1a2.18,2.18,0,0,0-.38-1.41,1.38,1.38,0,0,0-1.1-.44q-1.47,0-1.47,1.8a3.52,3.52,0,0,0,.55,1.9,10.39,10.39,0,0,0,2,2.14,11.09,11.09,0,0,1,2.55,2.93,6.51,6.51,0,0,1,.7,3.08A5,5,0,0,1,70,33.42a4.3,4.3,0,0,1-3.31,1.23A4.14,4.14,0,0,1,63.45,33.43Z" transform="translate(0 -15.35)"/><path d="M73.77,33.42a5,5,0,0,1-1.15-3.49V20.07a5,5,0,0,1,1.15-3.49,5.11,5.11,0,0,1,6.65,0,4.92,4.92,0,0,1,1.16,3.49v9.86a4.92,4.92,0,0,1-1.16,3.49,5.11,5.11,0,0,1-6.65,0Zm4.86-3.3V19.88c0-1.23-.51-1.85-1.53-1.85s-1.53.62-1.53,1.85V30.12c0,1.23.51,1.85,1.53,1.85S78.63,31.35,78.63,30.12Z" transform="translate(0 -15.35)"/><path d="M84.15,33.43a5.06,5.06,0,0,1-1.1-3.5V28.86h2.79v1.29c0,1.21.51,1.82,1.53,1.82a1.45,1.45,0,0,0,1.14-.44,2.22,2.22,0,0,0,.38-1.44A3.91,3.91,0,0,0,88.36,28a9.88,9.88,0,0,0-2-2.16A11.79,11.79,0,0,1,83.83,23,5.88,5.88,0,0,1,83.1,20a4.88,4.88,0,0,1,1.13-3.44,4.24,4.24,0,0,1,3.27-1.22,4.07,4.07,0,0,1,3.2,1.22,5.06,5.06,0,0,1,1.09,3.5v.77H89v-1a2.18,2.18,0,0,0-.37-1.41,1.38,1.38,0,0,0-1.1-.44c-1,0-1.48.6-1.48,1.8a3.61,3.61,0,0,0,.55,1.9,10.49,10.49,0,0,0,2,2.14,11.28,11.28,0,0,1,2.55,2.93,6.51,6.51,0,0,1,.69,3.08,5,5,0,0,1-1.14,3.54,4.29,4.29,0,0,1-3.31,1.23A4.11,4.11,0,0,1,84.15,33.43Z" transform="translate(0 -15.35)"/><path d="M93.53,15.62h3V34.38h-3Z" transform="translate(0 -15.35)"/><path d="M101,15.62h4L108,34.38h-3l-.54-3.72v.05h-3.35l-.53,3.67H97.9Zm3.22,12.54-1.32-9.27h0l-1.29,9.27Z" transform="translate(0 -15.35)"/><path d="M109.43,15.62h2.95V31.7h4.85v2.68h-7.8Z" transform="translate(0 -15.35)"/></svg>